<svg xmlns="http://www.w3.org/2000/svg" viewBox="0 0 120 120" fill="none">
  <rect x="6" y="6" width="108" height="108" rx="24" fill="#EEF2FF" />
  <rect x="16" y="16" width="88" height="88" rx="20" fill="#F8FAFF" stroke="#3A70FF" strokeWidth="2.5" />
  <path
    d="M36 32h48c6.075 0 11 4.925 11 11v36c0 3.314-2.686 6-6 6H62l-8 10-8-10H31c-3.314 0-6-2.686-6-6V43c0-6.075 4.925-11 11-11Z"
    fill="#FFFFFF"
    stroke="#3A70FF"
    strokeWidth="3"
    strokeLinejoin="round"
  />
  <path
    d="M44 46h32c2.761 0 5 2.239 5 5v10.5c0 8.008-6.492 14.5-14.5 14.5h-9.5l-6 6v-6H44c-2.761 0-5-2.239-5-5V51c0-2.761 2.239-5 5-5Z"
    fill="#3A70FF"
  />
  <path d="M50 54h20" stroke="#FFFFFF" strokeWidth="3" strokeLinecap="round" />
  <path d="M50 62h12" stroke="#FFFFFF" strokeWidth="3" strokeLinecap="round" />
  <circle cx="82" cy="44" r="6" fill="#FFD86A" />
</svg>